<svg id="Capa_1" enable-background="new 0 0 512 512" height="512" viewBox="0 0 512 512" width="512" xmlns="http://www.w3.org/2000/svg"><g><path d="m303.218 29.019h-75.573l1.314.901 3.992 3.22v200.026h71.984l4.649-5.056v-195.145z" fill="#dbedff"/><path d="m234.196 29.019h-27.308l-4.472 3.946v191.84l8.086 8.361h23.694z" fill="#b5dcff"/><path d="m232.951 228.11v156.739l-1.864 2.157h72.303l6.194-4.468v-154.428z" fill="#ff76aa"/><path d="m234.196 228.11h-31.78v154.428l7.348 4.468h24.432z" fill="#ff5595"/><path d="m228.234 228.11c0-4.268-3.459-7.726-7.726-7.726h-18.092v15.453h18.092c4.267-.001 7.726-3.46 7.726-7.727z" fill="#ff3581"/><path d="m234.066 171.818h-31.65v15.453h31.65c4.267 0 7.726-3.459 7.726-7.726s-3.459-7.727-7.726-7.727z" fill="#8bcaff"/><path d="m241.792 276.675c0-4.268-3.459-7.726-7.726-7.726h-31.65v15.453h31.65c4.267-.001 7.726-3.459 7.726-7.727z" fill="#ff3581"/><path d="m234.066 74.687h-31.65v15.453h31.65c4.267 0 7.726-3.459 7.726-7.726 0-4.268-3.459-7.727-7.726-7.727z" fill="#8bcaff"/><path d="m220.508 123.252h-18.092v15.453h18.092c4.267 0 7.726-3.459 7.726-7.726s-3.459-7.727-7.726-7.727z" fill="#8bcaff"/><path d="m228.234 325.24c0-4.268-3.459-7.726-7.726-7.726h-18.092v15.453h18.092c4.267 0 7.726-3.459 7.726-7.727z" fill="#ff3581"/><path d="m311.113 0h-76.668l-5.357 1.977-7.34 9.915v6.696l2.704 8.241 4.507 3.091 3.775 3.044h78.379c9.103 0 16.482-7.38 16.482-16.482s-7.38-16.482-16.482-16.482z" fill="#b5dcff"/><path d="m224.581 16.482c0-9.102 7.38-16.482 16.483-16.482h-40.177c-9.103 0-16.482 7.38-16.482 16.482s7.38 16.482 16.482 16.482h40.177c-9.103.001-16.483-7.379-16.483-16.482z" fill="#8bcaff"/><path d="m322.215 424.574-6.206-4.088h-87.136l.172 4.293-33.051 52.796-3.005.394v5.616h157.274l4.506-4.55z" fill="#6b7ed9"/><path d="m229.704 424.574 6.316-4.088h-39.92l-6.316 4.088-32.553 54.461 6.312 4.55h39.919l-6.312-4.55z" fill="#4d66d2"/><path d="m364.203 479.035h-179.341l-4.578.6-7.726 6.009-2.575 8.37v7.082l3.734 6.181 3.863 2.575 5.824 2.146h180.8c9.103 0 16.482-7.38 16.482-16.482 0-9.101-7.38-16.481-16.483-16.481z" fill="#8896e0"/><path d="m171.234 495.518c0-9.103 7.38-16.482 16.482-16.482h-39.919c-9.103 0-16.482 7.379-16.482 16.482s7.38 16.482 16.482 16.482h39.919c-9.102 0-16.482-7.38-16.482-16.482z" fill="#6b7ed9"/><path d="m311.706 382.538h-78.755v2.311l-3.477 4.024-1.631 5.859 1.194 29.842h93.179v-31.526c0-5.804-4.706-10.51-10.51-10.51z" fill="#8896e0"/><path d="m240.213 382.538h-39.919c-5.804 0-10.51 4.706-10.51 10.51v31.526h39.919v-31.526c.001-5.804 4.706-10.51 10.51-10.51z" fill="#6b7ed9"/></g></svg>