<?xml version="1.0" encoding="iso-8859-1"?>
<!-- Generator: Adobe Illustrator 19.0.0, SVG Export Plug-In . SVG Version: 6.00 Build 0)  -->
<svg version="1.1" id="Capa_1" xmlns="http://www.w3.org/2000/svg" xmlns:xlink="http://www.w3.org/1999/xlink" x="0px" y="0px"
	 viewBox="0 0 512 512" style="enable-background:new 0 0 512 512;" xml:space="preserve">
<g>
	<g>
		<path style="fill:#E64C3C;" d="M341.333,68.267c-4.713,0-8.533-3.821-8.533-8.533V17.067h-42.667
			c-4.713,0-8.533-3.821-8.533-8.533S285.421,0,290.133,0H332.8c9.426,0,17.067,7.641,17.067,17.067v42.667
			C349.867,64.446,346.046,68.267,341.333,68.267z"/>
		<polygon style="fill:#E64C3C;" points="460.8,128 418.133,503.467 256,503.467 213.333,128 		"/>
	</g>
	<path style="fill:#14A085;" d="M332.8,358.4v76.8h-39.168c-2.237,0.018-4.379,0.905-5.973,2.475l-40.192,40.192l-40.192-40.192
		c-1.594-1.57-3.736-2.457-5.973-2.475H59.733v-76.8H332.8z"/>
	<path style="fill:#E6E7E8;" d="M238.933,59.733H435.2c9.426,0,17.067,7.641,17.067,17.067v34.133h-230.4V76.8
		C221.867,67.374,229.508,59.733,238.933,59.733z"/>
	<path style="fill:#D1D4D1;" d="M213.333,93.867H460.8c9.426,0,17.067,7.641,17.067,17.067V128c0,4.713-3.821,8.533-8.533,8.533
		H204.8c-4.713,0-8.533-3.821-8.533-8.533v-17.067C196.267,101.508,203.908,93.867,213.333,93.867z"/>
	<path style="fill:#804537;" d="M332.8,324.352c-0.48-0.071-0.966-0.099-1.451-0.085H59.733c-7.113,0.005-13.903,2.968-18.743,8.18
		c-4.84,5.212-7.293,12.203-6.772,19.297c1.464,13.71,13.18,24.018,26.965,23.723H332.8c7.113-0.005,13.903-2.968,18.743-8.18
		c4.84-5.212,7.293-12.203,6.772-19.297C356.938,334.828,346.028,324.721,332.8,324.352z"/>
	<path style="fill:#F0C419;" d="M332.8,264.533v59.819c-0.48-0.071-0.966-0.099-1.451-0.085H208.299
		c-2.237,0.018-4.379,0.905-5.973,2.475L153.6,375.467l-48.725-48.725c-1.594-1.57-3.736-2.457-5.973-2.475H59.733v-59.733H332.8z"
		/>
	<g>
		<path style="fill:#F29C1F;" d="M349.867,281.6h-307.2c-4.713,0-8.533-3.82-8.533-8.533v-8.533
			c0-47.128,38.205-85.333,85.333-85.333h153.6c47.128,0,85.333,38.205,85.333,85.333v8.533
			C358.4,277.78,354.58,281.6,349.867,281.6z"/>
		<path style="fill:#F29C1F;" d="M358.4,426.667v25.6c0,28.277-22.923,51.2-51.2,51.2H85.333c-28.277,0-51.2-22.923-51.2-51.2v-25.6
			c0-4.713,3.821-8.533,8.533-8.533h158.635c2.237,0.018,4.379,0.905,5.973,2.475l40.192,40.192l40.192-40.192
			c1.594-1.57,3.736-2.457,5.973-2.475h56.235C354.579,418.133,358.4,421.954,358.4,426.667z"/>
	</g>
	<g>
		<path style="fill:#E57E25;" d="M128,213.333h-8.533c-4.713,0-8.533,3.821-8.533,8.533c0,4.713,3.821,8.533,8.533,8.533H128
			c4.713,0,8.533-3.821,8.533-8.533C136.533,217.154,132.713,213.333,128,213.333z"/>
		<path style="fill:#E57E25;" d="M179.2,230.4h-8.533c-4.713,0-8.533,3.821-8.533,8.533c0,4.713,3.821,8.533,8.533,8.533h8.533
			c4.713,0,8.533-3.821,8.533-8.533C187.733,234.221,183.913,230.4,179.2,230.4z"/>
		<path style="fill:#E57E25;" d="M281.6,230.4h-8.533c-4.713,0-8.533,3.821-8.533,8.533c0,4.713,3.82,8.533,8.533,8.533h8.533
			c4.713,0,8.533-3.821,8.533-8.533C290.133,234.221,286.313,230.4,281.6,230.4z"/>
		<path style="fill:#E57E25;" d="M230.4,213.333h-8.533c-4.713,0-8.533,3.821-8.533,8.533c0,4.713,3.821,8.533,8.533,8.533h8.533
			c4.713,0,8.533-3.821,8.533-8.533C238.933,217.154,235.113,213.333,230.4,213.333z"/>
	</g>
	<g>
		<path style="fill:#804537;" d="M503.467,494.933H486.4c-4.713,0-8.533,3.821-8.533,8.533c0,4.713,3.82,8.533,8.533,8.533h17.067
			c4.713,0,8.533-3.82,8.533-8.533C512,498.754,508.18,494.933,503.467,494.933z"/>
		<path style="fill:#804537;" d="M452.267,494.933H8.533c-4.713,0-8.533,3.821-8.533,8.533C0,508.18,3.821,512,8.533,512h443.733
			c4.713,0,8.533-3.82,8.533-8.533C460.8,498.754,456.98,494.933,452.267,494.933z"/>
	</g>
</g>
<g>
</g>
<g>
</g>
<g>
</g>
<g>
</g>
<g>
</g>
<g>
</g>
<g>
</g>
<g>
</g>
<g>
</g>
<g>
</g>
<g>
</g>
<g>
</g>
<g>
</g>
<g>
</g>
<g>
</g>
</svg>
