<svg id="Layer_1" enable-background="new 0 0 512 512" height="512" viewBox="0 0 512 512" width="512" xmlns="http://www.w3.org/2000/svg"><g><path d="m445.886 512v-41.719c39.867-27.608 38.916-86.868 14.192-118.155-15.989-20.232-42.552-33.274-69.342-35.765 0 0-36.135-77.097-134.753-77.097-100.362 0-134.753 77.097-134.753 77.097-26.789 2.491-53.353 15.533-69.342 35.765-24.725 31.287-25.675 90.547 14.192 118.155v41.719z" fill="#bb5d4c"/><path d="m460.077 352.125c-15.989-20.232-42.552-33.274-69.342-35.765 0 0-36.135-77.097-134.753-77.097-7.268 0-14.179.416-20.766 1.166 60.629 7 93.594 44.11 107.02 63.737 5.019 7.337 12.636 12.461 21.298 14.458 21.768 5.019 42.148 16.815 55.335 33.502 24.725 31.287 25.675 90.547-14.192 118.155v41.719h41.207v-41.719c39.868-27.609 38.918-86.869 14.193-118.156z" fill="#a44f3e"/><g><g fill="#e8edf2"><path d="m359.077 128.242s72.564 6.966 86.306-52.435c10.523-45.487-43.153-75.807-43.153-75.807s86.987 8.578 86.398 94.537c-.64 93.248-129.551 107.029-129.551 107.029z"/><path d="m152.923 128.242s-72.563 6.966-86.306-52.435c-10.523-45.487 43.153-75.807 43.153-75.807s-86.987 8.578-86.397 94.537c.64 93.248 129.551 107.029 129.551 107.029v-73.324z"/></g><path d="m374.112 203.861c25.501-1.66 72.709 11.962 72.709 11.962-24.104-57.69-81.041-64.558-81.041-64.558h-219.56s-56.937 6.868-81.041 64.558c0 0 47.208-13.623 72.709-11.962z" fill="#ea9b58"/><path d="m298.252 94.405-85.231.267c-44.481.139-80.427 36.29-80.288 80.745l.051 16.224c.069 22.013 11.257 42.501 29.744 54.468 16.939 10.965 27.19 29.738 27.254 49.907l.096 17.301 132.973-.417-.096-17.301c-.063-20.169 10.07-39.006 26.94-50.077 18.411-12.083 29.471-32.641 29.402-54.653l-.051-16.224c-.141-44.455-36.313-80.38-80.794-80.24z" fill="#bb5d4c"/><path d="m379.045 174.645c-.139-44.455-36.312-80.38-80.793-80.241l-36.742.116c42.411 2.184 76.192 37.169 76.327 80.125l.051 16.224c.069 22.012-10.991 42.571-29.402 54.653-16.869 11.071-27.003 29.908-26.94 50.077l.096 17.301h41.207l-.096-17.301c-.063-20.169 10.07-39.006 26.94-50.077 18.411-12.082 29.471-32.641 29.402-54.653z" fill="#a44f3e"/><path d="m285.451 367.463h-58.902c-20.454 0-37.035-16.572-37.035-37.014v-23.312c0-10.712 5.633-20.636 14.833-26.133 31.953-19.853 71.366-19.856 103.307 0 9.2 5.496 14.833 15.421 14.833 26.133v23.312c0 20.442-16.582 37.014-37.036 37.014z" fill="#ea9b58"/><path d="m307.654 281.004c-22.151-13.77-47.894-17.981-72.252-12.652 10.763 2.355 21.255 6.566 31.045 12.652 9.2 5.496 14.833 15.421 14.833 26.133v23.312c0 20.442-16.581 37.014-37.035 37.014h41.207c20.454 0 37.035-16.572 37.035-37.014v-23.312c0-10.712-5.633-20.636-14.833-26.133z" fill="#d88a55"/><g fill="#bb5d4c"><path d="m233.577 303.657c-4.267 0-7.726 3.459-7.726 7.726v16.723c0 4.267 3.459 7.726 7.726 7.726s7.726-3.459 7.726-7.726v-16.723c.001-4.266-3.458-7.726-7.726-7.726z"/><path d="m278.423 303.657c-4.267 0-7.726 3.459-7.726 7.726v16.723c0 4.267 3.459 7.726 7.726 7.726s7.726-3.459 7.726-7.726v-16.723c0-4.266-3.459-7.726-7.726-7.726z"/></g></g><g fill="#a44f3e"><path d="m157.836 512v-44.868c2.923.615 5.951.944 9.055.944h47.205c15.602 0 30.258-8.324 38.249-21.723l3.638-6.101 3.638 6.101c7.991 13.399 22.648 21.723 38.25 21.723h47.217c4.389 0 8.626-.655 12.627-1.86v45.784h15.453v-51.651c0-.763-.115-1.498-.321-2.194 9.843-8.057 16.138-20.294 16.138-33.976v-15.737c0-4.267-3.459-7.726-7.726-7.726s-7.726 3.459-7.726 7.726v15.737c0 15.684-12.76 28.444-28.445 28.444h-47.217c-10.188 0-19.759-5.436-24.978-14.186l-10.274-17.226c-1.394-2.337-3.914-3.769-6.636-3.769s-5.242 1.432-6.636 3.769l-10.274 17.226c-5.219 8.751-14.79 14.186-24.978 14.186h-47.205c-15.691 0-28.457-12.766-28.457-28.457v-15.724c0-4.267-3.459-7.726-7.726-7.726s-7.726 3.459-7.726 7.726v15.724c0 15.143 7.706 28.52 19.402 36.417v51.417z"/><path d="m263.726 512v-25.825c0-4.267-3.459-7.726-7.726-7.726s-7.726 3.459-7.726 7.726v25.825z"/></g></g></svg>