<?xml version="1.0" encoding="iso-8859-1"?>
<!-- Generator: Adobe Illustrator 19.0.0, SVG Export Plug-In . SVG Version: 6.00 Build 0)  -->
<svg version="1.1" id="Layer_1" xmlns="http://www.w3.org/2000/svg" xmlns:xlink="http://www.w3.org/1999/xlink" x="0px" y="0px"
	 viewBox="0 0 511.999 511.999" style="enable-background:new 0 0 511.999 511.999;" xml:space="preserve">
<polygon style="fill:#FF4719;" points="329.194,359.108 329.194,417.934 255.999,450.614 182.805,417.934 182.805,359.108 "/>
<polygon style="fill:#111449;" points="394.163,8.443 347.942,8.443 411.724,385.253 444.405,385.253 444.405,58.684 "/>
<polygon style="fill:#27467A;" points="347.942,8.443 255.999,41.123 164.052,8.443 67.594,8.443 67.594,385.253 132.956,385.253 
	255.999,341.678 379.043,385.253 411.724,385.253 411.724,72.225 "/>
<rect x="118.74" y="223.134" style="fill:#A0F6FA;" width="274.519" height="162.119"/>
<polygon style="fill:#FF754F;" points="329.194,417.934 329.194,470.463 255.999,504.102 182.805,470.463 182.805,417.934 "/>
<polygon style="fill:#50D1DD;" points="350.131,8.443 350.131,163.35 318.54,163.35 285.859,85.896 318.54,8.443 "/>
<polygon style="fill:#78E3EC;" points="318.534,129.86 255.999,8.443 161.868,8.443 161.868,163.35 318.54,163.35 "/>
<rect x="255.999" y="8.443" style="fill:#111449;" width="62.54" height="121.42"/>
<path d="M159.112,222.859c0-4.513-3.657-8.17-8.17-8.17h-32.681c-4.513,0-8.17,3.657-8.17,8.17V352.3c0,4.513,3.657,8.17,8.17,8.17
	c4.513,0,8.17-3.657,8.17-8.17V231.03h24.511C155.454,231.03,159.112,227.373,159.112,222.859z"/>
<path d="M175.452,222.859c0,4.513,3.657,8.17,8.17,8.17h201.946V352.3c0,4.513,3.658,8.17,8.17,8.17c4.513,0,8.17-3.657,8.17-8.17
	v-129.44c0-4.513-3.657-8.17-8.17-8.17H183.622C179.109,214.689,175.452,218.347,175.452,222.859z"/>
<path d="M450.183,52.638L399.941,2.393C398.408,0.861,396.33,0,394.163,0H67.594c-4.513,0-8.17,3.657-8.17,8.17v376.81
	c0,4.513,3.657,8.17,8.17,8.17h376.81c4.513,0,8.17-3.657,8.17-8.17V58.415C452.575,56.248,451.714,54.171,450.183,52.638z
	 M169.58,16.34h78.249v113.247c0,4.513,3.657,8.17,8.17,8.17h61.908c4.513,0,8.17-3.657,8.17-8.17V40.851
	c0-4.513-3.657-8.17-8.17-8.17c-4.513,0-8.17,3.657-8.17,8.17v80.566H264.17V16.34h78.249v138.571H169.58V16.34z M436.234,376.81
	H75.765V16.34h77.475v146.741c0,4.513,3.657,8.17,8.17,8.17h189.179c4.513,0,8.17-3.657,8.17-8.17V16.34h32.02l45.456,45.458V376.81
	z"/>
<path d="M361.058,311.448H150.941c-4.513,0-8.17,3.657-8.17,8.17c0,4.513,3.657,8.17,8.17,8.17h210.116
	c4.513,0,8.17-3.657,8.17-8.17C369.228,315.107,365.571,311.448,361.058,311.448z"/>
<path d="M361.058,278.768H150.941c-4.513,0-8.17,3.657-8.17,8.17c0,4.513,3.657,8.17,8.17,8.17h210.116
	c4.513,0,8.17-3.657,8.17-8.17C369.228,282.426,365.571,278.768,361.058,278.768z"/>
<path d="M352.137,450.653l-14.772,6.789l-0.001-39.78c0-4.513-3.658-8.17-8.17-8.17c-4.512,0-8.17,3.658-8.17,8.17l0.001,47.29
	l-65.025,29.887l-65.025-29.887v-47.29c0-4.513-3.657-8.17-8.17-8.17c-4.513,0-8.17,3.657-8.17,8.17v39.78l-14.772-6.789
	c-4.099-1.886-8.95-0.087-10.835,4.012c-1.885,4.1-0.088,8.951,4.012,10.835l99.549,45.753c1.083,0.498,2.247,0.746,3.412,0.746
	s2.329-0.248,3.412-0.746l99.549-45.753c4.1-1.885,5.897-6.736,4.012-10.835C361.088,450.565,356.238,448.767,352.137,450.653z"/>
<g>
</g>
<g>
</g>
<g>
</g>
<g>
</g>
<g>
</g>
<g>
</g>
<g>
</g>
<g>
</g>
<g>
</g>
<g>
</g>
<g>
</g>
<g>
</g>
<g>
</g>
<g>
</g>
<g>
</g>
</svg>
