<svg id="Capa_1" enable-background="new 0 0 512 512" height="512" viewBox="0 0 512 512" width="512" xmlns="http://www.w3.org/2000/svg"><g><path d="m358.402 349.868c37.7 0 68.263 30.562 68.263 68.263l.002 76.802c0 9.426-7.641 17.067-17.067 17.067h-307.2c-9.426 0-17.067-7.641-17.067-17.067l.002-76.802c0-37.701 30.562-68.263 68.263-68.263z" fill="#f9f6f9"/><path d="m426.665 418.131c0-37.701-30.562-68.263-68.263-68.263h-23.694c37.7 0 68.263 30.562 68.263 68.263l.002 76.802c0 9.426-7.641 17.067-17.067 17.067h23.694c9.426 0 17.067-7.641 17.067-17.067z" fill="#e2d8ec"/><path d="m204.8 276.821v78.709h102.4v-78.694z" fill="#ffcec0"/><path d="m283.506 276.834h23.694v78.696h-23.694z" fill="#fdb0a0"/><path d="m358.399 153.597c9.426 0 17.067 7.641 17.067 17.067v34.134c0 9.426-7.641 17.067-17.067 17.067h-204.799c-9.426 0-17.067-7.641-17.067-17.067v-34.134c0-9.426 7.641-17.067 17.067-17.067z" fill="#ffcec0"/><path d="m358.399 153.597h-23.694c9.426 0 17.067 7.641 17.067 17.067v34.134c0 9.426-7.641 17.067-17.067 17.067h23.694c9.426 0 17.067-7.641 17.067-17.067v-34.134c0-9.426-7.641-17.067-17.067-17.067z" fill="#fdb0a0"/><path d="m255.999 128.928-85.332 24.669.001 68.27c0 47.128 38.204 85.332 85.332 85.332 9.638 0 18.892-1.621 27.533-4.567l9.676-12.493h13.983c20.729-15.568 34.14-40.353 34.14-68.272v-68.27z" fill="#ffcec0"/><path d="m317.638 146.747v75.12c0 43.105-31.968 78.725-73.485 84.495 3.874.538 7.825.837 11.847.837 47.128 0 85.332-38.204 85.332-85.332v-68.27z" fill="#fdb0a0"/><g><path d="m221.866 203.991c-4.268 0-7.726-3.459-7.726-7.726v-8.533c0-4.268 3.459-7.726 7.726-7.726 4.268 0 7.726 3.459 7.726 7.726v8.533c0 4.267-3.458 7.726-7.726 7.726z" fill="#70393c"/></g><g><path d="m290.133 203.991c-4.268 0-7.726-3.459-7.726-7.726v-8.533c0-4.268 3.459-7.726 7.726-7.726 4.268 0 7.726 3.459 7.726 7.726v8.533c0 4.267-3.459 7.726-7.726 7.726z" fill="#70393c"/></g><g><path d="m256 246.66c-8.808 0-17.03-4.745-21.46-12.384-2.141-3.691-.883-8.419 2.809-10.559 3.69-2.139 8.418-.883 10.559 2.809 1.675 2.888 4.775 4.682 8.092 4.682s6.418-1.794 8.091-4.681c2.141-3.693 6.867-4.952 10.559-2.81 3.692 2.14 4.951 6.867 2.811 10.558-4.429 7.639-12.652 12.385-21.461 12.385z" fill="#ff646f"/></g><path d="m366.933 47.407c0-20.946-19.103-37.926-42.667-37.926-7.873 0-15.245 1.9-21.574 5.208-3.024 1.58-6.713 1.159-9.257-1.114-9.344-8.35-22.654-13.575-37.435-13.575s-28.091 5.225-37.435 13.575c-2.544 2.273-6.234 2.694-9.257 1.114-6.329-3.308-13.701-5.208-21.574-5.208-23.564 0-42.667 16.98-42.667 37.926 0 13.938 8.462 26.114 21.066 32.704 2.76 1.443 4.539 4.246 4.539 7.361l-.005 66.125h170.666l-.003-66.127c0-3.114 1.779-5.917 4.539-7.36 12.603-6.59 21.064-18.765 21.064-32.703z" fill="#f9f6f9"/><path d="m307.2 324.267-43.474 14.491-7.726 7.086-7.727-7.086-43.473-14.491-17.066 25.601 68.266 25.598 68.267-25.6z" fill="#e2d8ec"/><path d="m195.46 512v-113.272c0-.334.211-.638.524-.756l60.015-22.506v-16.504l-65.442 24.541c-6.311 2.367-10.55 8.485-10.55 15.224v113.273z" fill="#d5c6e4"/><ellipse cx="238.933" cy="443.733" fill="#f6e266" rx="17.066" ry="17.066" transform="matrix(.526 -.851 .851 .526 -264.143 413.696)"/><ellipse cx="307.2" cy="443.733" fill="#f6e266" rx="17.066" ry="17.066" transform="matrix(.526 -.851 .851 .526 -231.766 471.768)"/><path d="m324.267 9.481c-4.111 0-8.079.529-11.84 1.495 17.794 4.568 30.811 19.143 30.811 36.431 0 13.937-8.461 26.113-21.064 32.703-2.76 1.443-4.539 4.246-4.539 7.36l.002 66.127h23.695l-.003-66.127c0-3.114 1.779-5.917 4.539-7.36 12.603-6.59 21.064-18.766 21.064-32.703.001-20.945-19.101-37.926-42.665-37.926z" fill="#e2d8ec"/><path d="m170.669 111.74h170.662v15.453h-170.662z" fill="#d5c6e4"/><path d="m248.273 338.758v33.811l7.726 2.897 7.726-2.897v-33.811l-5.12 1.707c-1.692.564-3.52.564-5.212 0z" fill="#d5c6e4"/><g fill="#ffc250"><path d="m307.201 426.667c-4.606 0-8.777 1.833-11.847 4.798 3.213 3.104 5.219 7.448 5.219 12.268s-2.006 9.164-5.219 12.268c3.07 2.965 7.242 4.798 11.847 4.798 9.425 0 17.066-7.641 17.066-17.066 0-9.426-7.641-17.066-17.066-17.066z"/><path d="m238.933 426.667c-4.606 0-8.777 1.833-11.847 4.798 3.213 3.104 5.219 7.448 5.219 12.268s-2.006 9.164-5.219 12.268c3.07 2.965 7.242 4.798 11.847 4.798 9.425 0 17.066-7.641 17.066-17.066 0-9.426-7.641-17.066-17.066-17.066z"/></g></g></svg>