<svg id="flat" height="512" viewBox="0 0 512 512" width="512" xmlns="http://www.w3.org/2000/svg"><rect fill="#f6bb00" height="320" rx="40" width="464" x="24" y="168"/><rect fill="#34475c" height="248" rx="16" width="352" x="56" y="200"/><g fill="#2c3f54"><path d="m80 200h16v248h-16z"/><path d="m112 200h16v248h-16z"/><path d="m144 200h16v248h-16z"/><path d="m176 200h16v248h-16z"/><path d="m208 352h16v96h-16z"/><path d="m240 360h16v88h-16z"/><path d="m272 328h16v120h-16z"/><path d="m304 200h16v248h-16z"/><path d="m336 200h16v248h-16z"/><path d="m368 200h16v248h-16z"/></g><path d="m24 240h32v176h-32z" fill="#4d6378"/><path d="m408 256h80v144h-80z" fill="#4d6378"/><circle cx="448" cy="328" fill="#2c3f54" r="16"/><path d="m432 352h32v16h-32z" fill="#2c3f54"/><path d="m432 288h32v16h-32z" fill="#2c3f54"/><path d="m313.26491 399.14563 6.38188-44.67313a15.39076 15.39076 0 0 1 1.47017-4.70642 15.39092 15.39092 0 0 1 20.64909-6.883l20.46789 10.23392a15.39093 15.39093 0 0 1 6.883 20.64909 15.39091 15.39091 0 0 1 -2.883 4l-31.90938 31.90938a12.4095 12.4095 0 0 1 -14.32456 2.32453 12.40951 12.40951 0 0 1 -6.73509-12.85437z" fill="#f07f2f"/><circle cx="352" cy="248" fill="#cc442f" r="32"/><path d="m340 247.056h16v17.889h-16z" fill="#b82f1a" transform="matrix(.894 -.447 .447 .894 -77.747 182.657)"/><path d="m344.00024 16v39.99992a24.00008 24.00008 0 0 1 -24.00008 24.00008 32 32 0 0 0 -32 31.99986l-.00016 24.00014a16.00007 16.00007 0 0 1 -16.00007 16h-.00008a63.99985 63.99985 0 0 0 -63.99985 63.99985v104.00015h88v-63.99851a40.00142 40.00142 0 0 1 40.00138-40.00149h.00009a48 48 0 0 0 48-47.99558v-.00008a24.00655 24.00655 0 0 1 24.00653-24.00434h15.992a56 56 0 0 0 56-56v-72z" fill="#84d8e8"/><path d="m355.056 224h17.889v16h-17.889z" fill="#b82f1a" transform="matrix(.447 -.894 .894 .447 -6.293 453.818)"/><path d="m216 271.17993a31.274 31.274 0 0 1 -4.62012 16.34007l-8.09988 13.14992-9.87012 16.04-8.17988 13.30008-9.56006 15.53v.01l-9.99 16.21-2.61987 4.26a37.84 37.84 0 0 1 -32.16993 17.98h-.64014a36.529 36.529 0 0 1 -29.27-14.66l-.35986-.48a63.485 63.485 0 0 1 -12.62014-37.98 80.69845 80.69845 0 0 1 16.12988-48.39l.67017-.89a24.012 24.012 0 0 1 19.19995-9.6 24.0593 24.0593 0 0 0 19.2-9.6001l1.90991-2.53991a49.63912 49.63912 0 0 1 39.71016-19.85999 31.17157 31.17157 0 0 1 31.17993 31.17993z" fill="#b1792c"/><path d="m165.67993 361.76-2.61987 4.26a37.60454 37.60454 0 0 1 -8.13013 9.33l-41.91993-75.46 13.98-7.78z" fill="#956625"/><path d="m185.23 330.01-9.56 15.53-30.62-53.57 13.9-7.94z" fill="#956625"/><path d="m203.28 300.67-9.87 16.04-16.57-33.13 14.32-7.16z" fill="#956625"/><path d="m312 303.17993a31.274 31.274 0 0 1 -4.62012 16.34007l-8.09988 13.15993-9.87012 16.03-8.18988 13.31007-9.56006 15.52-9.97 16.21-2.62988 4.27a37.84 37.84 0 0 1 -32.16992 17.98h-.64014a36.529 36.529 0 0 1 -29.27-14.66l-.35986-.48a63.485 63.485 0 0 1 -12.62014-37.98 80.69845 80.69845 0 0 1 16.12988-48.39l.67017-.89a24.012 24.012 0 0 1 19.19995-9.6 24.0593 24.0593 0 0 0 19.2-9.6001l1.90991-2.53991a49.63912 49.63912 0 0 1 39.71016-19.85999 31.17157 31.17157 0 0 1 31.17993 31.17993z" fill="#b1792c"/><path d="m261.68994 393.75-2.62988 4.27a37.60454 37.60454 0 0 1 -8.13013 9.33l-41.91993-75.46 13.98-7.78z" fill="#956625"/><path d="m281.22 362.02-9.56 15.52-30.61-53.57 13.9-7.94z" fill="#956625"/><path d="m299.28 332.68-9.87 16.03-16.57-33.13 14.32-7.16z" fill="#956625"/></svg>