<?xml version="1.0" encoding="iso-8859-1"?>
<!-- Generator: Adobe Illustrator 19.0.0, SVG Export Plug-In . SVG Version: 6.00 Build 0)  -->
<svg version="1.1" id="Capa_1" xmlns="http://www.w3.org/2000/svg" xmlns:xlink="http://www.w3.org/1999/xlink" x="0px" y="0px"
	 viewBox="0 0 512 512" style="enable-background:new 0 0 512 512;" xml:space="preserve">
<path style="fill:#FFC266;" d="M312.037,0H199.963c-35.599,0-64.562,28.962-64.562,64.562v54.877
	c0,35.599,28.962,64.562,64.562,64.562h112.074c35.599,0,64.562-28.962,64.562-64.562V64.562C376.599,28.962,347.636,0,312.037,0z"
	/>
<path style="fill:#FF9900;" d="M312.037,0H256v184h56.037c35.599,0,64.562-28.962,64.562-64.562V64.562
	C376.599,28.962,347.636,0,312.037,0z"/>
<path style="fill:#BF7300;" d="M373.369,58.685H138.631c-18.371,0-33.315,14.945-33.315,33.316c0,18.37,14.945,33.315,33.315,33.315
	h234.738c18.371,0,33.315-14.945,33.315-33.315C406.685,73.63,391.74,58.685,373.369,58.685z"/>
<path style="fill:#804D00;" d="M373.369,58.685H256v66.631h117.369c18.371,0,33.315-14.945,33.315-33.315
	C406.685,73.63,391.74,58.685,373.369,58.685z"/>
<rect x="181.51" y="266.67" style="fill:#B2E2F7;" width="288" height="217.67"/>
<rect x="256" y="266.67" style="fill:#6FC8F1;" width="213.51" height="217.67"/>
<rect x="42.49" y="266.67" style="fill:#DBF1FB;" width="141.95" height="217.67"/>
<g>
	<rect x="166.51" y="266.67" style="fill:#FF4F19;" width="30" height="217.67"/>
	<rect x="27.49" y="266.67" style="fill:#FF4F19;" width="30" height="217.67"/>
</g>
<rect x="113.18" y="405.33" style="fill:#9F2600;" width="30" height="42.667"/>
<rect x="454.51" y="266.67" style="fill:#D43200;" width="30" height="217.67"/>
<g>
	<polygon style="fill:#B2E2F7;" points="276.874,484.333 329.878,437.955 310.123,415.378 231.317,484.333 	"/>
	
		<rect x="368.994" y="395.653" transform="matrix(-0.6585 -0.7526 0.7526 -0.6585 317.7521 992.1902)" style="fill:#B2E2F7;" width="30" height="56.695"/>
</g>
<rect y="482" style="fill:#60DD4D;" width="512" height="30"/>
<rect x="256" y="482" style="fill:#1EBA4A;" width="256" height="30"/>
<path style="fill:#FFE4BA;" d="M510.926,297.658c0.687-2.036,1.074-4.208,1.074-6.472v-20.648L448,177H64L0,270.538v20.648
	c0,2.265,0.388,4.436,1.075,6.472L510.926,297.658L510.926,297.658z"/>
<path style="fill:#FFC266;" d="M448,177H256.101v120.658h254.825c0.687-2.036,1.074-4.208,1.074-6.472v-20.648L448,177z"/>
<polygon style="fill:#D43200;" points="384,289.328 341.333,177 256,177 256,297.992 "/>
<path style="fill:#FF4F19;" d="M128,289.328L170.667,177H64L0,270.538v20.648c0,2.39,0.436,4.674,1.197,6.806L128,289.328z"/>
<path style="fill:#D43200;" d="M128,298.667c0,35.347-28.653,64-64,64c-35.346,0-64-28.653-64-64v-9.339h128V298.667z"/>
<path style="fill:#FFC266;" d="M256,298.667c0,35.347-28.653,64-64,64c-35.346,0-64-28.653-64-64v-9.339h128V298.667z"/>
<path style="fill:#9F2600;" d="M384,298.667c0,35.347-28.653,64-64,64c-35.346,0-64-28.653-64-64v-9.339h128V298.667z"/>
<path style="fill:#FF9900;" d="M512,298.667c0,35.347-28.653,64-64,64c-35.346,0-64-28.653-64-64v-9.339h128V298.667z"/>
<g>
</g>
<g>
</g>
<g>
</g>
<g>
</g>
<g>
</g>
<g>
</g>
<g>
</g>
<g>
</g>
<g>
</g>
<g>
</g>
<g>
</g>
<g>
</g>
<g>
</g>
<g>
</g>
<g>
</g>
</svg>
