<svg height="512pt" viewBox="0 -61 512 512" width="512pt" xmlns="http://www.w3.org/2000/svg"><path d="m302 0h210v390h-210zm0 0" fill="#07485e"/><g fill="#0b799d"><path d="m332 120h150v120h-150zm0 0"/><path d="m332 270h150v90h-150zm0 0"/><path d="m332 30h150v60h-150zm0 0"/><path d="m0 60v210l30 30h332l30-30v-210zm0 0"/></g><path d="m392 60v210l-30 30h-166v-240zm0 0" fill="#07485e"/><path d="m30 90h332v150h-332zm0 0" fill="#ffda2d"/><path d="m196 90h166v150h-166zm0 0" fill="#dc9e00"/><path d="m151 315h90v60h-90zm0 0" fill="#d2d2d7"/><path d="m196 315h45v60h-45zm0 0" fill="#a0a0a5"/><path d="m120 360h152v30h-152zm0 0" fill="#ebebf0"/><path d="m196 360h76v30h-76zm0 0" fill="#d2d2d7"/><path d="m0 270h392v60h-392zm0 0" fill="#ebebf0"/><path d="m196 270h196v60h-196zm0 0" fill="#d2d2d7"/><path d="m422 180h30v30h-30zm0 0" fill="#2fc0f0"/><path d="m422 300h30v30h-30zm0 0" fill="#2fc0f0"/></svg>