<svg id="Capa_1" enable-background="new 0 0 497 497" height="512" viewBox="0 0 497 497" width="512" xmlns="http://www.w3.org/2000/svg"><g><path d="m0 308.5v37.5c0 4.142 3.358 7.5 7.5 7.5h112.5v-75z" fill="#acd5df"/><path d="m437 263.5 30 90h22.5c4.142 0 7.5-3.358 7.5-7.5v-37.5z" fill="#9abbd0"/><path d="m377 278.5h90v75h-90z" fill="#acd5df"/><path d="m467.801 230.05-30.801-11.55 30 90h30v-36.315c0-18.758-11.636-35.548-29.199-42.135z" fill="#ff3e3a"/><path d="m120 293.5h257v60h-257z" fill="#acd5df"/><path d="m338.008 83.5h-308.008c-16.569 0-30 13.431-30 30l194.983 45 194.983-45c-10.632-18.424-30.372-30-51.958-30z" fill="#4a527b"/><path d="m467 272.185c0-18.758-5.818-35.548-14.6-42.135l-15.4-11.55-44.164-99.368c-.863-1.941-1.825-3.818-2.871-5.632h-389.965v195h120v15h257v-15h90z" fill="#ff6053"/><circle cx="120" cy="353.5" fill="#4a527b" r="60"/><path d="m120 323.5-15 30 15 30c16.569 0 30-13.431 30-30s-13.431-30-30-30z" fill="#c5f3ff"/><path d="m90 353.5c0 16.569 13.431 30 30 30v-60c-16.569 0-30 13.431-30 30z" fill="#fff"/><circle cx="377" cy="353.5" fill="#4a527b" r="60"/><path d="m377 323.5-15 30 15 30c16.569 0 30-13.431 30-30s-13.432-30-30-30z" fill="#c5f3ff"/><path d="m347 353.5c0 16.569 13.431 30 30 30v-60c-16.569 0-30 13.431-30 30z" fill="#fff"/><path d="m384.17 173.5-13.333-30h-32.829l-1.667 45z" fill="#a0ecff"/><path d="m293.5 143.5v30l28.921 15 28.92-15-13.333-30z" fill="#c5f3ff"/><path d="m371.341 218.5h32.83l-20.001-45h-32.829v22.5z" fill="#c5f3ff"/><path d="m293.5 218.5h77.841l-20-45h-57.841z" fill="#fff"/><path d="m233.5 143.5-30 37.5 30 37.5h30v-75z" fill="#c5f3ff"/><path d="m185.667 143.5-16.03 37.5 16.03 37.5h47.833v-75z" fill="#fff"/><path d="m30 143.5v75h77.833l16.03-37.5-16.03-37.5z" fill="#fff"/><path d="m107.833 143.5h77.833v75h-77.833z" fill="#e5faff"/><path d="m323.5 256h-30c-4.143 0-7.5-3.357-7.5-7.5s3.357-7.5 7.5-7.5h30c4.143 0 7.5 3.357 7.5 7.5s-3.357 7.5-7.5 7.5z" fill="#323752"/></g></svg>