<svg height="496pt" viewBox="0 0 496 496" width="496pt" xmlns="http://www.w3.org/2000/svg"><path d="m232 296h-80c-26.511719 0-48 21.488281-48 48h176c0-26.511719-21.488281-48-48-48zm0 0" fill="#666"/><path d="m232 296h-80c-17.761719 0-33.222656 9.664062-41.527344 24h163.046875c-8.296875-14.335938-23.757812-24-41.519531-24zm0 0" fill="#898989"/><path d="m168 264h48v32h-48zm0 0" fill="#666"/><path d="m168 264h48v16h-48zm0 0" fill="#898989"/><path d="m344 264h-304c-17.671875 0-32-14.328125-32-32v-192c0-17.671875 14.328125-32 32-32h304c17.671875 0 32 14.328125 32 32v192c0 17.671875-14.328125 32-32 32zm0 0" fill="#666"/><path d="m40 40h304v192h-304zm0 0" fill="#ddd"/><path d="m120 96c0 13.253906-10.746094 24-24 24s-24-10.746094-24-24 10.746094-24 24-24 24 10.746094 24 24zm0 0" fill="#ab6e3b"/><path d="m312 136c0 13.253906-10.746094 24-24 24s-24-10.746094-24-24 10.746094-24 24-24 24 10.746094 24 24zm0 0" fill="#ab6e3b"/><path d="m184 424h304v64h-304zm0 0" fill="#666"/><path d="m184 424h280v64h-280zm0 0" fill="#898989"/><path d="m488 304c0 66.273438-53.726562 120-120 120s-120-53.726562-120-120 53.726562-120 120-120 120 53.726562 120 120zm0 0" fill="#c8c0bd"/><path d="m456 304c0 48.601562-39.398438 88-88 88s-88-39.398438-88-88 39.398438-88 88-88 88 39.398438 88 88zm0 0" fill="#898989"/><path d="m328 336-56 40-.007812.007812c9.03125 12.023438 20.273437 22.296876 33.121093 30.214844l38.886719-62.222656" fill="#7ce0e8"/><path d="m400 272 61.136719-43.671875c-9.921875-12.199219-22.191407-22.40625-36.128907-29.945313l-41.007812 65.617188" fill="#7ce0e8"/><path d="m416 304c0 26.507812-21.492188 48-48 48s-48-21.492188-48-48 21.492188-48 48-48 48 21.492188 48 48zm0 0" fill="#c8c0bd"/><path d="m384 304c0 8.835938-7.164062 16-16 16s-16-7.164062-16-16 7.164062-16 16-16 16 7.164062 16 16zm0 0" fill="#efefef"/><path d="m368 432c-70.574219 0-128-57.425781-128-128s57.425781-128 128-128 128 57.425781 128 128-57.425781 128-128 128zm0-240c-61.761719 0-112 50.238281-112 112s50.238281 112 112 112 112-50.238281 112-112-50.238281-112-112-112zm0 0"/><path d="m368 328c-13.230469 0-24-10.769531-24-24s10.769531-24 24-24 24 10.769531 24 24-10.769531 24-24 24zm0-32c-4.40625 0-8 3.585938-8 8s3.59375 8 8 8 8-3.585938 8-8-3.59375-8-8-8zm0 0"/><path d="m368 360c-30.878906 0-56-25.128906-56-56s25.121094-56 56-56 56 25.128906 56 56-25.121094 56-56 56zm0-96c-22.054688 0-40 17.945312-40 40s17.945312 40 40 40 40-17.945312 40-40-17.945312-40-40-40zm0 0"/><path d="m297.195312 403.75 40.007813-63.992188 13.574219 8.484376-40.007813 63.992187zm0 0"/><path d="m267.328125 369.488281 55.996094-39.996093 9.292969 13.011718-55.996094 39.996094zm0 0"/><path d="m377.195312 259.753906 40.007813-63.992187 13.566406 8.480469-40.007812 63.996093zm0 0"/><path d="m395.328125 265.496094 55.996094-39.996094 9.296875 13.019531-55.992188 39.996094zm0 0"/><path d="m488 496h-304c-4.414062 0-8-3.574219-8-8v-64c0-4.425781 3.585938-8 8-8h304c4.414062 0 8 3.574219 8 8v64c0 4.425781-3.585938 8-8 8zm-296-16h288v-48h-288zm0 0"/><path d="m448 448h16v16h-16zm0 0"/><path d="m416 448h16v16h-16zm0 0"/><path d="m384 448h16v16h-16zm0 0"/><path d="m256 272h-216c-22.054688 0-40-17.945312-40-40v-192c0-22.054688 17.945312-40 40-40h304c22.054688 0 40 17.945312 40 40v144h-16v-144c0-13.230469-10.769531-24-24-24h-304c-13.230469 0-24 10.769531-24 24v192c0 13.230469 10.769531 24 24 24h216zm0 0"/><path d="m256 352h-152c-4.414062 0-8-3.574219-8-8 0-30.871094 25.121094-56 56-56h80c6.40625 0 12.6875 1.078125 18.671875 3.191406l-5.34375 15.082032c-4.257813-1.503907-8.742187-2.273438-13.328125-2.273438h-80c-19.320312 0-35.480469 13.769531-39.191406 32h143.191406zm0 0"/><path d="m160 264h16v32h-16zm0 0"/><path d="m208 264h16v32h-16zm0 0"/><path d="m272 240h-232c-4.414062 0-8-3.585938-8-8v-192c0-4.414062 3.585938-8 8-8h304c4.414062 0 8 3.585938 8 8v144h-16v-136h-288v176h224zm0 0"/><path d="m96 128c-17.648438 0-32-14.351562-32-32s14.351562-32 32-32 32 14.351562 32 32-14.351562 32-32 32zm0-48c-8.824219 0-16 7.175781-16 16s7.175781 16 16 16 16-7.175781 16-16-7.175781-16-16-16zm0 0"/><path d="m288 168c-17.648438 0-32-14.351562-32-32s14.351562-32 32-32 32 14.351562 32 32-14.351562 32-32 32zm0-48c-8.824219 0-16 7.175781-16 16s7.175781 16 16 16 16-7.175781 16-16-7.175781-16-16-16zm0 0"/><path d="m117.847656 103.710938 4.28125-15.417969 144 39.996093-4.28125 15.414063zm0 0"/></svg>