<svg id="Capa_1" enable-background="new 0 0 512.389 512.389" height="512" viewBox="0 0 512.389 512.389" width="512" xmlns="http://www.w3.org/2000/svg"><g><g><path d="m327.656 494.746h-162.176l25.03-109.796h112.116z" fill="#e0edf1"/><path d="m302.626 384.95h-26.446l25.029 109.796h26.447z" fill="#a8d3d8"/><path d="m125.272 462.978h242.592v31.768h-242.592z" fill="#8ebac5"/><path d="m334.757 462.978c4.146 0 7.507 3.361 7.507 7.507v16.754c0 4.146-3.361 7.507-7.507 7.507h33.107v-31.768z" fill="#7ca1b1"/><g><path d="m482.08 358.79v37.894c0 8.99-7.29 16.28-16.29 16.28h-441.999c-9 0-16.29-7.29-16.29-16.28v-37.894c0-8.99 7.29-16.28 16.29-16.28h441.999c9 0 16.29 7.29 16.29 16.28z" fill="#8ebac5"/><path d="m465.79 342.51h-22.612c9 0 16.29 7.29 16.29 16.28v37.894c0 8.99-7.29 16.28-16.29 16.28h22.612c9 0 16.29-7.29 16.29-16.28v-37.894c0-8.99-7.29-16.28-16.29-16.28z" fill="#7ca1b1"/></g><path d="m482.08 160.923v198.77h-474.579v-198.77c0-8.99 7.29-16.28 16.29-16.28h441.999c9 0 16.29 7.29 16.29 16.28z" fill="#e0edf1"/><path d="m465.79 144.643h-22.612c9 0 16.29 7.29 16.29 16.28v198.77h22.612v-198.77c0-8.99-7.29-16.28-16.29-16.28z" fill="#a8d3d8"/><path d="m39.426 177.473h306.871v151.404h-306.871z" fill="#8379c1"/><path d="m310.874 177.473c7.096 0 12.848 5.752 12.848 12.847v125.708c0 7.095-5.752 12.848-12.848 12.848h35.424v-151.403z" fill="#6e61b6"/><path d="m75.846 231.86h232.399v31.871h-232.399z" fill="#7ca1b1"/><path d="m70.105 231.86h168.272v31.871h-168.272z" fill="#a2e62e"/><path d="m376.102 252.168h75.975v75.975h-75.975z" fill="#08a9f1"/><path d="m422.218 252.168c5.474 0 9.911 4.437 9.911 9.911v56.153c0 5.473-4.437 9.911-9.911 9.911h29.858v-75.975z" fill="#0290cf"/><g><g><path d="m459.468 44.069-102.856 8.49-100.097-8.49c0-14.595 11.831-26.426 26.426-26.426h150.1c14.596 0 26.427 11.831 26.427 26.426z" fill="#deecf1"/><path d="m459.472 44.072-12.203 5.917-9.887-5.917c0-14.6-11.83-26.43-26.43-26.43h22.09c14.59 0 26.43 11.83 26.43 26.43z" fill="#a8d3d8"/><path d="m256.515 67.046 9.143 45.417-9.143 45.415c-25.084 0-45.421-20.327-45.421-45.411s20.338-45.421 45.421-45.421z" fill="#a8d3d8"/><path d="m256.512 67.042 9.147 45.42-9.147 45.42c-7.18 0-13.97-1.66-20-4.63v-81.58c6.03-2.96 12.82-4.63 20-4.63z" fill="#7ca1b1"/><path d="m459.468 67.046-8.476 45.416 8.476 45.416c25.084 0 45.421-20.327 45.421-45.411s-20.337-45.421-45.421-45.421z" fill="#a8d3d8"/><path d="m504.892 112.462c0 24.87-19.98 45.06-44.75 45.41 14.06-.63 25.35-20.71 25.35-45.41 0-24.69-11.29-44.78-25.35-45.41 24.77.35 44.75 20.55 44.75 45.41z" fill="#7ca1b1"/><path d="m436.886 201.392h-157.788c-12.472 0-22.582-10.11-22.582-22.582v-134.741h202.953v134.741c-.001 12.472-10.111 22.582-22.583 22.582z" fill="#62dbfb"/><path d="m459.472 44.072v134.74c0 12.47-10.11 22.58-22.59 22.58h-22.08c12.47 0 22.58-10.11 22.58-22.58v-134.74z" fill="#01d0fb"/><g fill="#deecf1"><circle cx="312.12" cy="94.843" r="23.784"/><circle cx="403.864" cy="94.843" r="23.784"/><path d="m402.211 171.09h-88.439c-7.297 0-13.213-5.916-13.213-13.213 0-7.297 5.916-13.213 13.213-13.213h88.439c7.297 0 13.213 5.916 13.213 13.213 0 7.298-5.915 13.213-13.213 13.213z"/></g></g></g></g><g><path d="m39.426 379.029c-4.142 0-7.5 3.358-7.5 7.5s3.358 7.5 7.5 7.5h20.097c4.142 0 7.5-3.358 7.5-7.5s-3.358-7.5-7.5-7.5z"/><path d="m308.245 271.232c4.142 0 7.5-3.358 7.5-7.5v-31.871c0-4.142-3.358-7.5-7.5-7.5h-69.869-168.272c-4.142 0-7.5 3.358-7.5 7.5v31.871c0 4.142 3.358 7.5 7.5 7.5h168.272zm-7.5-15h-54.869v-16.871h54.869zm-223.141 0v-16.871h153.272v16.871z"/><path d="m209.414 285.657h-40.485c-4.142 0-7.5 3.358-7.5 7.5s3.358 7.5 7.5 7.5h40.485c4.142 0 7.5-3.358 7.5-7.5s-3.358-7.5-7.5-7.5z"/><path d="m459.539 251.427c-.285-3.322-3.256-6.781-7.463-6.759h-75.975c-4.142 0-7.5 3.358-7.5 7.5v75.973c-.046 3.557 2.976 7.557 7.5 7.503h75.975c4.142 0 7.5-3.358 7.5-7.5v-75.973c.001-.249-.012-.497-.037-.744zm-25.569 8.241-50.368 50.369v-50.369zm-39.762 60.975 50.368-50.369v50.369z"/><path d="m343.403 94.843c0-17.25-14.034-31.284-31.283-31.284-17.25 0-31.284 14.034-31.284 31.284s14.034 31.283 31.284 31.283c17.249 0 31.283-14.033 31.283-31.283zm-47.567 0c0-8.979 7.305-16.284 16.284-16.284s16.283 7.305 16.283 16.284-7.305 16.283-16.283 16.283c-8.979 0-16.284-7.304-16.284-16.283z"/><path d="m403.864 63.559c-17.25 0-31.284 14.034-31.284 31.284s14.034 31.283 31.284 31.283 31.284-14.034 31.284-31.283c-.001-17.25-14.034-31.284-31.284-31.284zm0 47.567c-8.979 0-16.284-7.305-16.284-16.283 0-8.979 7.305-16.284 16.284-16.284s16.284 7.305 16.284 16.284c-.001 8.979-7.305 16.283-16.284 16.283z"/><path d="m402.211 137.164h-88.439c-11.421 0-20.713 9.292-20.713 20.713s9.292 20.713 20.713 20.713h88.439c11.421 0 20.713-9.292 20.713-20.713s-9.292-20.713-20.713-20.713zm-36.719 15h11.426v11.426h-11.426zm-15 11.427h-11.426v-11.426h11.426zm-42.433-5.714c0-3.15 2.563-5.713 5.713-5.713h10.293v11.426h-10.293c-3.15.001-5.713-2.562-5.713-5.713zm94.152 5.714h-10.293v-11.426h10.293c3.15 0 5.713 2.563 5.713 5.713s-2.563 5.713-5.713 5.713z"/><path d="m512.389 112.467c0-13.709-5.222-26.709-14.704-36.605-2.866-2.991-7.614-3.093-10.604-.227-2.991 2.866-3.093 7.613-.227 10.604 6.794 7.091 10.535 16.406 10.535 26.229 0 18.337-13.092 33.673-30.421 37.163v-105.562c0-18.707-15.219-33.926-33.926-33.926h-150.101c-18.707 0-33.926 15.219-33.926 33.926v16.018c-25.641 3.655-45.421 25.746-45.421 52.38 0 8.908 2.223 17.304 6.128 24.677h-185.932c-13.118 0-23.79 10.667-23.79 23.78v235.76c0 13.112 10.672 23.78 23.79 23.78h150.928l-7.98 35.015h-41.466c-4.142 0-7.5 3.358-7.5 7.5v31.768c0 4.142 3.358 7.5 7.5 7.5h242.592c4.142 0 7.5-3.358 7.5-7.5v-31.768c0-4.142-3.358-7.5-7.5-7.5h-41.462l-7.98-35.015h33.091c4.142 0 7.5-3.358 7.5-7.5s-3.358-7.5-7.5-7.5h-327.723c-4.847 0-8.79-3.938-8.79-8.78v-29.49h459.58v29.49c0 4.841-3.943 8.78-8.79 8.78h-78.53c-4.142 0-7.5 3.358-7.5 7.5s3.358 7.5 7.5 7.5h78.53c13.118 0 23.79-10.667 23.79-23.78v-235.76c0-1.528-.147-3.048-.436-4.537-.008-.039-.019-.077-.026-.116 14.033-9.526 23.271-25.606 23.271-43.804zm-152.025 374.779h-227.592v-16.768h227.592zm-49.347-31.768h-128.894l7.98-35.015h112.934zm-31.919-261.586c-9.384 0-14.973-7.804-15.082-16.506v-19.509-90.831-15.477h187.952v127.241c0 8.316-6.766 15.082-15.082 15.082zm3.843-168.749h150.101c7.771 0 14.458 4.712 17.369 11.426h-184.838c2.911-6.714 9.597-11.426 17.368-11.426zm-33.925 50.147v74.342c-17.331-3.489-30.421-18.828-30.421-37.166-.001-18.343 13.09-33.685 30.421-37.176zm-234.016 276.903v-191.27c0-4.841 3.943-8.78 8.79-8.78h197.77c7.556 6.662 17.017 11.205 27.456 12.693v5.137h-209.586c-4.142 0-7.5 3.358-7.5 7.5v151.4c0 4.142 3.358 7.5 7.5 7.5h19.093c4.142 0 7.5-3.358 7.5-7.5s-3.358-7.5-7.5-7.5h-11.593v-136.4h202.723c2.852 13.641 14.969 23.919 29.445 23.919h59.702v112.481h-244.94c-4.142 0-7.5 3.358-7.5 7.5s3.358 7.5 7.5 7.5h252.44c4.142 0 7.5-3.358 7.5-7.5v-119.981h83.085c16.587 0 30.082-13.495 30.082-30.082v-13.974c2.603-.371 5.145-.932 7.612-1.669v189.026z"/></g></g></svg>