<svg height="512pt" viewBox="0 0 512 512" width="512pt" xmlns="http://www.w3.org/2000/svg"><path d="m386.921875 206.734375c-8.285156 0-15-6.71875-15-15v-8c0-3.867187 3.132813-7 7-7l-27.605469-103.507813c-11.496094-43.117187-50.6875-73.226562-95.324218-73.226562-44.621094 0-83.8125 30.109375-95.308594 73.226562l-27.605469 103.507813c3.867187 0 7 3.132813 7 7v8c0 8.28125-6.714844 15-15 15l-12.105469 45.402344c-2.535156 9.507812 4.640625 18.863281 14.496094 18.863281h257.0625c9.84375 0 17.035156-9.34375 14.496094-18.863281zm0 0" fill="#fad2a0"/><path d="m399.027344 252.136719-12.105469-45.402344c-8.285156 0-15-6.71875-15-15v-8c0-3.867187 3.132813-7 7-7l-27.605469-103.507813c-11.496094-43.113281-50.683594-73.22265575-95.316406-73.226562v271h128.53125c9.84375 0 17.035156-9.34375 14.496094-18.863281zm0 0" fill="#f0be8c"/><path d="m127.46875 512c-34.859375 0-63.203125-28.34375-63.203125-63.183594 0-8.285156 6.71875-15.007812 15-15.007812 8.285156 0 15 6.707031 15 14.992187 0 18.3125 14.886719 33.199219 33.183594 33.199219 18.394531 0 33.21875-14.863281 33.21875-33.199219 0-34.855469 28.34375-63.199219 63.183593-63.199219 8.285157 0 15.007813 6.714844 15.007813 15 0 8.28125-6.707031 15-14.992187 15h-.015626c-18.296874 0-33.183593 14.882813-33.183593 33.183594 0 34.914063-28.226563 63.214844-63.199219 63.214844zm0 0" fill="#463c37"/><path d="m384.53125 512c34.859375 0 63.203125-28.34375 63.203125-63.183594 0-8.285156-6.71875-15.007812-15-15.007812-8.285156 0-15 6.707031-15 14.992187 0 18.3125-14.886719 33.199219-33.183594 33.199219-18.394531 0-33.21875-14.863281-33.21875-33.199219 0-34.855469-28.34375-63.199219-63.183593-63.199219-8.285157 0-15.007813 6.714844-15.007813 15 0 8.28125 6.707031 15 14.992187 15h.015626c18.296874 0 33.183593 14.882813 33.183593 33.183594 0 34.914063 28.226563 63.214844 63.199219 63.214844zm0 0" fill="#2d2d2d"/><path d="m125.078125 206.734375h261.84375l-8-30h-245.84375zm0 0" fill="#ff4141"/><path d="m378.921875 176.734375h-122.921875v30h130.921875zm0 0" fill="#e12830"/><path d="m416.667969 351.332031h-321.351563c-52.644531 0-95.316406-42.585937-95.316406-95.316406 0-8.285156 6.714844-15.015625 15-15.015625h482c8.285156 0 15 6.714844 15 15 0 52.566406-42.765625 95.332031-95.332031 95.332031zm0 0" fill="#d4a06e"/><path d="m512 256c0-8.285156-6.714844-15-15-15h-241v110.332031h160.664062c52.570313 0 95.335938-42.765625 95.335938-95.332031zm0 0" fill="#b98250"/></svg>