<svg id="Capa_1" enable-background="new 0 0 512 512" height="512" viewBox="0 0 512 512" width="512" xmlns="http://www.w3.org/2000/svg"><g><g><g><path d="m186.729 404.648-41.922 94.52h111.193l21.607-53.069-21.607-41.451z" fill="#cfcfe6"/><path d="m325.271 404.648h-69.271v94.52h111.193z" fill="#adafc8"/><g><path d="m0 12.832v345.763l256 15.882 54.815-187.976-54.815-173.669z" fill="#3869ad"/><path d="m512 12.832h-256v361.645h46.109l209.891-174.557z" fill="#0053a0"/></g><g><path d="m116.121 469.168v30h139.879l21.607-14.549-21.607-15.451z" fill="#ece6f2"/><path d="m395.879 469.168h-139.879v30h30.715z" fill="#cfcfe6"/></g></g><g><path d="m0 358.595v65.577h256l25.973-41.661-25.973-23.916z" fill="#ece6f2"/><path d="m256 358.595h226v65.576h-226z" fill="#cfcfe6"/></g></g><g><g><g><path d="m226 70.004h30v99.13h-30z" fill="#66e5c2"/></g><g><path d="m106 200.266h30v99.13h-30z" fill="#66e5c2"/></g></g></g><g><path d="m175.214 69.463h-48.427l-20.787 20.786v58.249l20.787 20.787h48.426l20.787-20.786v-58.25zm-9.214 69.822h-30v-39.822h30z" fill="#66e5c2"/></g><g><path d="m355.929 69.463h-48.427l-20.787 20.787v58.249l20.787 20.787h48.426l20.787-20.787v-58.25zm-9.214 69.822h-30v-39.822h30z" fill="#4eb8c2"/></g><g><path d="m235.214 199.92h-48.427l-20.787 20.787v58.249l20.787 20.787h48.426l20.787-20.787v-58.25zm-9.214 69.823h-30v-39.823h30z" fill="#66e5c2"/></g><g><path d="m302.109 216.968v267.2h98.297l24.047-135.098-24.047-132.102z" fill="#66e5c2"/><path d="m400.406 216.968h98.297v267.2h-98.297z" fill="#4eb8c2"/></g><g><path d="m316.715 468.22v-238.3h83.691l16.188-12.952-16.188-17.048h-113.691v299.248h113.691l24.047-15-24.047-15.948z" fill="#ece6f2"/><path d="m384.358 409.172h16.048v30h-16.048z" fill="#ece6f2"/><path d="m400.406 409.172h13.952v30h-13.952z" fill="#cfcfe6"/></g><path d="m512 199.92h-111.594v30h81.594v238.3h-81.594v30.948h111.594z" fill="#cfcfe6"/></g></svg>