<svg height="480pt" viewBox="0 -48 480 480" width="480pt" xmlns="http://www.w3.org/2000/svg"><path d="m56 40h368c8.835938 0 16 7.160156 16 16v264h-400v-264c0-8.839844 7.164062-16 16-16zm0 0" fill="#9196a9"/><path d="m8 312h464v32c0 17.671875-14.328125 32-32 32h-400c-17.671875 0-32-14.328125-32-32zm0 0" fill="#dce1ea"/><path d="m72 72h336v208h-336zm0 0" fill="#dce1ea"/><path d="m168 312c0 17.671875 14.328125 32 32 32h80c17.671875 0 32-14.328125 32-32zm0 0" fill="#bec3d1"/><path d="m296.003906 111.996094 104-104 24.003906 24-104.003906 104.003906zm0 0" fill="#354468"/><path d="m198.625 113.375 57.375-57.375 120 120-66.34375 66.34375c-3.621094 3.621094-8.535156 5.65625-13.65625 5.65625s-10.035156-2.035156-13.65625-5.65625l-130.34375-130.34375 1.375 1.375c12.496094 12.492188 32.753906 12.492188 45.25 0zm0 0" fill="#2d67c4"/><path d="m224 87.996094 32-32 120 120-32.003906 32zm0 0" fill="#0c56bc"/><path d="m472 304h-24v-248c-.035156-10.242188-6.574219-19.328125-16.273438-22.609375.519532-2.546875-.253906-5.1875-2.070312-7.046875l-24-24c-3.125-3.125-8.1875-3.125-11.3125 0l-29.65625 29.65625h-308.6875c-13.253906 0-24 10.742188-24 24v248h-24c-4.417969 0-8 3.578125-8 8v32c.0273438 22.078125 17.917969 39.972656 40 40h400c22.082031-.027344 39.972656-17.921875 40-40v-32c0-4.421875-3.582031-8-8-8zm-72-284.691406 12.6875 12.691406-84.6875 84.6875-12.6875-12.6875zm0 60.691406v192h-320v-192h140.6875l-27.71875 27.710938c-9.492188 9.082031-24.453125 9.082031-33.945312 0l-1.375-1.367188c-3.140626-3.03125-8.132813-2.984375-11.214844.105469-3.082032 3.085937-3.125 8.078125-.089844 11.214843l130.34375 130.335938c10.667969 10.664062 27.957031 10.664062 38.625 0l66.34375-66.347656c3.121094-3.121094 3.121094-8.1875 0-11.308594l-42.34375-42.34375 48-48zm-108.6875 0h25.375l-12.6875 12.6875zm73.375 96-20.6875 20.6875-108.6875-108.6875 20.6875-20.691406zm-32 32-28.6875 28.679688c-4.476562 4.277343-11.523438 4.277343-16 0l-4.6875-4.679688 18.34375-18.347656-11.3125-11.308594-18.34375 18.34375-12.6875-12.6875 18.34375-18.347656-11.3125-11.308594-18.34375 18.34375-12.6875-12.6875 18.34375-18.347656-11.3125-11.308594-18.34375 18.34375-12.6875-12.6875 18.34375-18.347656-11.3125-11.308594-18.34375 18.34375-18.335938-18.335938c8.574219-1.207031 16.515626-5.183593 22.617188-11.328124l19.71875-19.714844zm-284.6875-152c0-4.421875 3.582031-8 8-8h292.6875l-16 16h-57.375l-13.65625-13.65625c-3.125-3.125-8.1875-3.125-11.3125 0l-13.65625 13.65625h-164.6875c-4.417969 0-8 3.578125-8 8v208c0 4.417969 3.582031 8 8 8h336c4.417969 0 8-3.582031 8-8v-208c0-4.421875-3.582031-8-8-8h-4.6875l16-16h4.6875c4.417969 0 8 3.578125 8 8v248h-384zm254.632812 264c-3.402343 9.578125-12.464843 15.984375-22.632812 16h-80c-10.167969-.015625-19.230469-6.421875-22.632812-16zm161.367188 24c0 13.253906-10.746094 24-24 24h-400c-13.253906 0-24-10.746094-24-24v-24h144.800781c3.828125 18.609375 20.199219 31.972656 39.199219 32h80c19-.027344 35.371094-13.390625 39.199219-32h144.800781zm0 0"/><path d="m112 128h16v16h-16zm0 0"/><path d="m112 160h16v16h-16zm0 0"/><path d="m128 144h16v16h-16zm0 0"/><path d="m96 144h16v16h-16zm0 0"/><path d="m192 208h16v16h-16zm0 0"/><path d="m192 240h16v16h-16zm0 0"/><path d="m208 224h16v16h-16zm0 0"/><path d="m176 224h16v16h-16zm0 0"/></svg>