<?xml version="1.0" encoding="iso-8859-1"?>
<!-- Uploaded to: SVG Repo, www.svgrepo.com, Generator: SVG Repo Mixer Tools -->
<svg height="800px" width="800px" version="1.1" id="Layer_1" xmlns="http://www.w3.org/2000/svg" xmlns:xlink="http://www.w3.org/1999/xlink" 
	 viewBox="0 0 511.999 511.999" xml:space="preserve">
<path style="fill:#434A54;" d="M159.998,85.339h-42.671c-5.891,0-10.656-4.781-10.656-10.672s4.766-10.664,10.656-10.664h42.671
	c5.891,0,10.671,4.773,10.671,10.664S165.889,85.339,159.998,85.339z"/>
<path style="fill:#48CFAD;" d="M423.54,461.777L18.219,56.464c-3.062-3.055-7.641-3.969-11.625-2.312C2.594,55.8,0,59.69,0,64.003
	V469.34c0,5.875,4.781,10.656,10.672,10.656h405.321c4.312,0,8.203-2.594,9.859-6.594
	C427.493,469.434,426.587,464.84,423.54,461.777z M85.328,394.653V244.258l150.403,150.396L85.328,394.653L85.328,394.653z"/>
<path style="fill:#4A89DC;" d="M373.322,294.03c-2.719,0-5.453-1.047-7.531-3.125c-4.172-4.172-4.172-10.921,0-15.093l7.547-7.539
	c4.155-4.164,10.905-4.164,15.077,0s4.172,10.914,0,15.086l-7.547,7.546C378.79,292.983,376.056,294.03,373.322,294.03z"/>
<polygon style="fill:#5D9CEC;" points="456.29,426.653 230.028,200.392 260.199,170.228 486.461,396.497 "/>
<path style="fill:#4A89DC;" d="M373.322,187.361c25.655,0,49.765,9.984,67.89,28.116c18.125,18.133,28.109,42.242,28.109,67.883
	c0,25.64-9.984,49.749-28.109,67.889l30.172,30.155c54.154-54.154,54.154-141.942,0-196.097
	c-54.156-54.148-141.951-54.148-196.106,0l30.172,30.17C323.573,197.345,347.683,187.361,373.322,187.361z"/>
<g>
	<path style="fill:#434A54;" d="M267.73,223.023l-7.531,7.539l15.078,15.086l0,0l7.547-7.547c4.156-4.164,4.156-10.914,0-15.078
		C278.652,218.852,271.902,218.852,267.73,223.023z"/>
	<path style="fill:#434A54;" d="M297.902,253.188l-7.531,7.547l0,0l15.078,15.078l7.547-7.539c4.156-4.164,4.156-10.914,0-15.086
		C308.824,249.023,302.074,249.023,297.902,253.188z"/>
	<path style="fill:#434A54;" d="M328.073,283.359l-7.546,7.546l15.093,15.078l0,0l7.547-7.547c4.156-4.156,4.156-10.906,0-15.077
		C338.995,279.188,332.245,279.188,328.073,283.359z"/>
	<path style="fill:#434A54;" d="M358.245,313.53l-7.547,7.531l0,0l15.093,15.094l7.531-7.531c4.171-4.172,4.171-10.938,0-15.094
		C369.166,309.374,362.416,309.374,358.245,313.53z"/>
	<path style="fill:#434A54;" d="M388.415,343.701l-7.547,7.547l15.094,15.078l0,0l7.531-7.547c4.172-4.156,4.172-10.906,0-15.078
		C399.337,339.53,392.571,339.53,388.415,343.701z"/>
	<path style="fill:#434A54;" d="M418.587,373.872l-7.547,7.531l15.078,15.094h0.016l7.531-7.547c4.172-4.172,4.172-10.922,0-15.078
		C429.509,369.7,422.743,369.7,418.587,373.872z"/>
	<path style="fill:#434A54;" d="M10.672,415.997c5.891,0,10.656-4.781,10.656-10.656c0-5.906-4.765-10.688-10.656-10.688H0v21.344
		H10.672z"/>
	<path style="fill:#434A54;" d="M10.672,373.341c5.891,0,10.656-4.78,10.656-10.687c0-5.875-4.765-10.656-10.656-10.656H0v21.343
		L10.672,373.341L10.672,373.341z"/>
	<path style="fill:#434A54;" d="M10.672,330.655c5.891,0,10.656-4.766,10.656-10.656s-4.765-10.656-10.656-10.656H0v21.312H10.672z"
		/>
	<path style="fill:#434A54;" d="M10.672,287.999c5.891,0,10.656-4.78,10.656-10.655c0-5.898-4.765-10.68-10.656-10.68H0v21.335
		H10.672z"/>
	<path style="fill:#434A54;" d="M10.672,245.336c5.891,0,10.656-4.781,10.656-10.672S16.563,224,10.672,224H0v21.336H10.672z"/>
	<path style="fill:#434A54;" d="M10.672,202.665c5.891,0,10.656-4.773,10.656-10.664c0-5.89-4.765-10.664-10.656-10.664H0v21.327
		h10.672V202.665z"/>
	<path style="fill:#434A54;" d="M10.672,160.001c5.891,0,10.656-4.773,10.656-10.664s-4.765-10.672-10.656-10.672H0v21.336H10.672z"
		/>
</g>
<g>
	<path style="fill:#CCD1D9;" d="M437.321,69.339H202.669c-5.89,0-10.671-4.781-10.671-10.672c0-5.89,4.781-10.664,10.671-10.664
		h234.652c5.891,0,10.672,4.773,10.672,10.664C447.993,64.558,443.212,69.339,437.321,69.339z"/>
	<path style="fill:#CCD1D9;" d="M437.321,101.338H202.669c-5.89,0-10.671-4.781-10.671-10.672c0-5.89,4.781-10.664,10.671-10.664
		h234.652c5.891,0,10.672,4.773,10.672,10.664C447.993,96.557,443.212,101.338,437.321,101.338z"/>
</g>
<circle style="fill:#DA4453;" cx="192" cy="74.67" r="31.999"/>
<g>
	<path style="fill:#ED5564;" d="M191.998,117.338c-23.531,0-42.671-19.14-42.671-42.671c0-23.523,19.141-42.663,42.671-42.663
		s42.671,19.14,42.671,42.663C234.668,98.198,215.528,117.338,191.998,117.338z M191.998,53.339
		c-11.766,0-21.328,9.57-21.328,21.328c0,11.766,9.562,21.335,21.328,21.335c11.765,0,21.327-9.57,21.327-21.335
		C213.325,62.909,203.763,53.339,191.998,53.339z"/>
	<path style="fill:#ED5564;" d="M199.544,82.214c-4.171,4.164-10.921,4.164-15.093,0c-4.156-4.164-4.156-10.922,0-15.086
		c4.172-4.164,10.922-4.164,15.093,0C203.7,71.292,203.7,78.05,199.544,82.214z"/>
</g>
</svg>