<svg height="512" viewBox="0 0 512 512" width="512" xmlns="http://www.w3.org/2000/svg"><g><g><rect fill="#d1e7f8" height="32" rx="16" width="176" x="168" y="16"/><path d="m320 220v212a64 64 0 0 1 -128 0v-220l8.79.55c13.09 1.81 15.96 7.45 33.87 7.45a52.382 52.382 0 0 0 21.34-4 52.289 52.289 0 0 1 21.33-4c17.92 0 20.79 5.64 33.88 7.45a64.857 64.857 0 0 0 8.79.55z" fill="#d80027"/><path d="m320 48v172l-8.79-.55c-13.09-1.81-15.96-7.45-33.88-7.45a52.289 52.289 0 0 0 -21.33 4 52.382 52.382 0 0 1 -21.34 4c-17.91 0-20.78-5.64-33.87-7.45a64.857 64.857 0 0 0 -8.79-.55v-164z" fill="#bddbff"/><g fill="#e0e0e2"><path d="m192 212a64.857 64.857 0 0 1 8.79.55z"/><path d="m320 220a64.857 64.857 0 0 1 -8.79-.55z"/><path d="m200.79 212.55-8.79-.55a64.857 64.857 0 0 1 8.79.55z"/><path d="m320 220a64.857 64.857 0 0 1 -8.79-.55z"/></g></g><g><path d="m328 8h-144a24 24 0 0 0 0 48v376a72 72 0 0 0 144 0v-376a24 24 0 0 0 0-48zm-16 424a56 56 0 0 1 -112 0v-211.48a47.079 47.079 0 0 1 10.52 2.97 60.224 60.224 0 0 0 24.14 4.51 60.241 60.241 0 0 0 24.15-4.51 50.911 50.911 0 0 1 37.05 0 59.845 59.845 0 0 0 16.14 4.11zm0-220.52a47.327 47.327 0 0 1 -10.53-2.97 66.86 66.86 0 0 0 -48.28 0 50.911 50.911 0 0 1 -37.05 0 59.845 59.845 0 0 0 -16.14-4.11v-148.4h112zm16-171.48h-144a8 8 0 0 1 0-16h144a8 8 0 0 1 0 16z"/><path d="m216 88h32a8 8 0 0 0 0-16h-32a8 8 0 0 0 0 16z"/><path d="m216 112h32a8 8 0 0 0 0-16h-32a8 8 0 0 0 0 16z"/><path d="m216 136h32a8 8 0 0 0 0-16h-32a8 8 0 0 0 0 16z"/></g></g></svg>